<svg width="95" height="95" viewBox="0 0 95 95" fill="none" xmlns="http://www.w3.org/2000/svg">
<path d="M52.0968 4.59677C52.0968 3.37763 51.6125 2.20843 50.7504 1.34636C49.8883 0.484302 48.7191 0 47.5 0C46.2809 0 45.1117 0.484302 44.2496 1.34636C43.3875 2.20843 42.9032 3.37763 42.9032 4.59677V36.4065L26.9126 20.4097C26.4883 19.9708 25.9809 19.6209 25.42 19.3802C24.8591 19.1396 24.2558 19.0131 23.6455 19.0081C23.0351 19.0031 22.4299 19.1196 21.865 19.351C21.3002 19.5824 20.7872 19.924 20.3558 20.3558C19.9244 20.7876 19.5833 21.301 19.3524 21.866C19.1216 22.4311 19.0055 23.0364 19.0111 23.6468C19.0167 24.2571 19.1438 24.8603 19.385 25.421C19.6261 25.9817 19.9766 26.4887 20.4158 26.9126L36.4003 42.9032H4.59677C3.37763 42.9032 2.20843 43.3875 1.34636 44.2496C0.484302 45.1117 0 46.2809 0 47.5C0 48.7191 0.484302 49.8883 1.34636 50.7504C2.20843 51.6125 3.37763 52.0968 4.59677 52.0968H36.4065L20.4097 68.0874C19.9708 68.5117 19.6209 69.0191 19.3802 69.58C19.1396 70.1409 19.0131 70.7442 19.0081 71.3545C19.0031 71.9649 19.1196 72.5701 19.351 73.1349C19.5824 73.6998 19.924 74.2128 20.3558 74.6442C20.7876 75.0756 21.301 75.4167 21.866 75.6476C22.4311 75.8784 23.0364 75.9945 23.6468 75.9889C24.2571 75.9833 24.8603 75.8562 25.421 75.615C25.9817 75.3739 26.4887 75.0234 26.9126 74.5842L42.9032 58.5997V90.4032C42.9032 91.6224 43.3875 92.7916 44.2496 93.6536C45.1117 94.5157 46.2809 95 47.5 95C48.7191 95 49.8883 94.5157 50.7504 93.6536C51.6125 92.7916 52.0968 91.6224 52.0968 90.4032V58.5935L68.0874 74.5903C68.5117 75.0292 69.0191 75.3791 69.58 75.6197C70.1409 75.8604 70.7442 75.9869 71.3545 75.9919C71.9649 75.9969 72.5701 75.8803 73.1349 75.649C73.6998 75.4176 74.2128 75.076 74.6442 74.6442C75.0756 74.2124 75.4167 73.699 75.6476 73.134C75.8784 72.5689 75.9945 71.9636 75.9889 71.3532C75.9833 70.7429 75.8562 70.1397 75.615 69.579C75.3739 69.0183 75.0234 68.5113 74.5842 68.0874L58.5997 52.0968H90.4032C91.6224 52.0968 92.7916 51.6125 93.6536 50.7504C94.5157 49.8883 95 48.7191 95 47.5C95 46.2809 94.5157 45.1117 93.6536 44.2496C92.7916 43.3875 91.6224 42.9032 90.4032 42.9032H58.5935L74.5903 26.9126C75.4273 26.0452 75.8901 24.8838 75.879 23.6786C75.868 22.4733 75.384 21.3206 74.5313 20.4687C73.6786 19.6169 72.5255 19.134 71.3202 19.1241C70.1149 19.1142 68.954 19.578 68.0874 20.4158L52.0968 36.4003V4.59677Z" fill="white"/>
</svg>
