<svg width="94" height="94" viewBox="0 0 94 94" fill="none" xmlns="http://www.w3.org/2000/svg">
<path d="M94 32.8492H58.0951L47 0L35.908 32.8492H0L29.0476 53.154L17.9524 86L47 65.6967L76.0476 86L64.9524 53.154L94 32.8492Z" fill="white"/>
<path d="M69.2838 28.9407L75.43 11L59.0875 22.2623L61.3747 28.9407H69.2838ZM40.6001 75.3128L47 94L53.403 75.3128L47 70.9022L40.6001 75.3128ZM76.2441 50.7484L70.256 54.8748L72.7984 62.2965H93L76.2441 50.7484ZM34.9094 22.2623L18.57 11L24.7162 28.9407H32.6253L34.9094 22.2623ZM17.7559 50.7484L1 62.2965H21.2L23.744 54.8748L17.7559 50.7484Z" fill="white"/>
</svg>
