<svg width="32" height="32" viewBox="0 0 32 32" fill="none" xmlns="http://www.w3.org/2000/svg">
<rect width="32" height="32" rx="8" fill="#F4F5F9"/>
<path d="M26.85 13.1227C26.8289 12.4146 26.6276 11.7238 26.2651 11.1164C25.9027 10.509 25.3914 10.0052 24.78 9.65332C24.6334 8.64599 24.1307 7.72554 23.3639 7.06072C22.5972 6.3959 21.6179 6.03126 20.6055 6.03365C20.2173 6.03297 19.8306 6.08352 19.4555 6.18398C18.6639 5.42403 17.6116 5 16.5173 5C15.4229 5 14.3706 5.42403 13.579 6.18398C13.2039 6.08352 12.8172 6.03297 12.429 6.03365C11.4127 6.02567 10.4278 6.38778 9.65625 7.05311C8.88472 7.71843 8.37865 8.64203 8.2315 9.65332C7.61799 10.0038 7.10435 10.5069 6.73985 11.1144C6.37535 11.7219 6.17224 12.4135 6.15 13.1227C5.845 13.1227 5.55249 13.2445 5.33683 13.4614C5.12116 13.6782 5 13.9724 5 14.2791C5.00005 16.309 5.53145 18.3032 6.54078 20.0612C7.55011 21.8191 9.00182 23.279 10.75 24.2939V25.8436C10.75 26.1503 10.8712 26.4444 11.0868 26.6613C11.3025 26.8782 11.595 27 11.9 27H21.1C21.405 27 21.6975 26.8782 21.9132 26.6613C22.1288 26.4444 22.25 26.1503 22.25 25.8436V24.2939C23.9982 23.279 25.4499 21.8191 26.4592 20.0612C27.4686 18.3032 27.9999 16.309 28 14.2791C28 13.9724 27.8788 13.6782 27.6632 13.4614C27.4475 13.2445 27.155 13.1227 26.85 13.1227ZM8.45 13.1227C8.47921 12.7573 8.61635 12.409 8.8438 12.1226C9.07125 11.8362 9.37864 11.6247 9.7265 11.5152L10.681 11.2145L10.497 10.2315C10.5 9.98248 10.5518 9.73644 10.6493 9.5075C10.7469 9.27855 10.8883 9.07117 11.0656 8.8972C11.2429 8.72323 11.4525 8.58608 11.6825 8.49358C11.9125 8.40108 12.1583 8.35505 12.406 8.3581C12.7381 8.35619 13.0657 8.43557 13.3605 8.58939L14.292 9.10979L14.867 8.21933C15.0468 7.9498 15.2899 7.72893 15.5747 7.57621C15.8594 7.42348 16.1772 7.34359 16.5 7.34359C16.8228 7.34359 17.1406 7.42348 17.4253 7.57621C17.7101 7.72893 17.9532 7.9498 18.133 8.21933L18.708 9.10979L19.6395 8.58939C19.9343 8.43557 20.2619 8.35619 20.594 8.3581C21.0914 8.35181 21.5714 8.54219 21.9306 8.88826C22.2898 9.23433 22.4995 9.70841 22.5145 10.2084L22.3305 11.1914L23.2735 11.5152C23.6214 11.6247 23.9288 11.8362 24.1562 12.1226C24.3837 12.409 24.5208 12.7573 24.55 13.1227H8.45Z" fill="#787878"/>
</svg>
