<svg width="55" height="29" viewBox="0 0 55 29" fill="none" xmlns="http://www.w3.org/2000/svg">
<path d="M53.0809 7.76941L51.5467 12.491H47.5831L44.5024 21.9723C44.0818 23.2669 44.6387 23.6477 45.7874 23.6858C46.3355 23.7239 47.4413 23.6477 48.2143 23.6096L46.6183 28.5216C45.953 28.5978 44.7825 28.7501 43.181 28.7501C38.4166 28.7501 36.1401 26.8843 37.5411 22.6958L40.8568 12.491H37.9341L39.4683 7.76941H42.391L43.9994 2.81934H50.7256L49.1172 7.76941H53.0809Z" fill="white"/>
<path d="M23.1414 28.445L29.8595 7.76893H36.6257L29.9076 28.445H23.1414ZM33.4855 3.29242C32.9287 5.0059 31.5637 3.29242 33.4855 3.29242C34.0422 1.57893 33.4855 3.29238 34.0667 2.20956C35.9885 2.20956 34.0422 1.57893 33.4855 3.29242C35.4072 3.29242 32.9287 5.0059 33.4855 3.29242Z" fill="white"/>
<path d="M0.000106982 28.4455L8.95752 0.877441H28.6157L26.896 6.17021H14.0441L12.1512 11.9961H23.7218L22.0021 17.2888H10.4314L6.8064 28.4455H0.000106982Z" fill="white"/>
<circle cx="33.9662" cy="3.29281" r="3.04281" fill="#639F1D"/>
</svg>
