<svg xmlns="http://www.w3.org/2000/svg" width="39" height="31" viewBox="0 0 39 31" fill="none">
  <path d="M17.2906 0.826064C16.7682 0.297135 16.0597 0 15.3211 0C14.5824 0 13.8739 0.297135 13.3515 0.826064L0.815632 13.5223C0.293385 14.0514 0 14.7689 0 15.517C0 16.2652 0.293385 16.9827 0.815632 17.5118L13.3515 30.208C13.8769 30.7219 14.5806 31.0063 15.311 30.9999C16.0415 30.9935 16.7402 30.6967 17.2567 30.1736C17.7732 29.6505 18.0661 28.9429 18.0725 28.2031C18.0788 27.4634 17.798 26.7507 17.2906 26.2186L9.74955 18.3384H36.2142C36.9531 18.3384 37.6616 18.0412 38.1841 17.5121C38.7065 16.9829 39 16.2653 39 15.517C39 14.7688 38.7065 14.0511 38.1841 13.522C37.6616 12.9929 36.9531 12.6956 36.2142 12.6956H9.74955L17.2906 4.81551C17.8128 4.28642 18.1062 3.56892 18.1062 2.82079C18.1062 2.07265 17.8128 1.35515 17.2906 0.826064Z" fill="#A2CC71"/>
</svg>