<svg width="173" height="89" viewBox="0 0 173 89" fill="none" xmlns="http://www.w3.org/2000/svg">
<path d="M166.179 23.4762L161.389 38.2175H149.014L139.396 67.8192C138.083 71.8612 139.822 73.05 143.408 73.1689C145.119 73.2877 148.572 73.05 150.985 72.9311L146.002 88.2669C143.925 88.5046 140.271 88.9802 135.271 88.9802C120.396 88.9802 113.288 83.155 117.662 70.0779L128.014 38.2175H118.889L123.679 23.4762H132.804L137.826 8.02148H158.826L153.804 23.4762H166.179Z" fill="black"/>
<path d="M72.7044 88.029L93.679 23.4761H114.804L93.8294 88.029H72.7044ZM105 9.49988C103.262 14.8496 98.9998 9.49988 105 9.49988C106.738 4.15019 105 9.49978 106.814 6.11908C112.814 6.11908 106.738 4.15019 105 9.49988C111 9.49988 103.262 14.8496 105 9.49988Z" fill="black"/>
<path d="M0.454371 88.0291L28.4204 1.9585H89.7954L84.4262 18.4831H44.3012L38.3913 36.6721H74.5163L69.1471 53.1967H33.0221L21.7044 88.0291H0.454371Z" fill="black"/>
<circle cx="106.5" cy="9.5" r="9.5" fill="url(#paint0_linear_37_18)"/>
<defs>
<linearGradient id="paint0_linear_37_18" x1="97" y1="-2" x2="120.93" y2="20.5113" gradientUnits="userSpaceOnUse">
<stop stop-color="#359ECB"/>
<stop offset="1" stop-color="#F8EF28"/>
</linearGradient>
</defs>
</svg>
