<svg width="154" height="80" viewBox="0 0 154 80" fill="none" xmlns="http://www.w3.org/2000/svg">
<path d="M148.709 21.0656L144.411 34.2934H133.307L124.676 60.8557C123.498 64.4827 125.058 65.5494 128.276 65.6561C129.812 65.7628 132.909 65.5494 135.075 65.4427L130.604 79.2039C128.74 79.4173 125.461 79.844 120.974 79.844C107.626 79.844 101.249 74.6169 105.174 62.8825L114.463 34.2934H106.275L110.573 21.0656H118.761L123.267 7.19775H142.111L137.605 21.0656H148.709Z" fill="white"/>
<path d="M64.8317 78.9907L83.6526 21.0658H102.609L83.7877 78.9907H64.8317ZM93.8111 8.52462C92.2513 13.325 88.4271 8.52462 93.8111 8.52462C95.3708 3.72421 93.8112 8.52453 95.4394 5.49094C100.823 5.49094 95.3708 3.72421 93.8111 8.52462C99.195 8.52462 92.2513 13.325 93.8111 8.52462Z" fill="white"/>
<path d="M0.000116437 78.9906L25.0947 1.75732H80.168L75.3501 16.5853H39.345L34.0418 32.9067H66.4577L61.6398 47.7346H29.224L19.0683 78.9906H0.000116437Z" fill="white"/>
<circle cx="95.1574" cy="8.52458" r="8.52458" fill="url(#paint0_linear_42_41)"/>
<defs>
<linearGradient id="paint0_linear_42_41" x1="86.6328" y1="-1.79465" x2="108.106" y2="18.4053" gradientUnits="userSpaceOnUse">
<stop stop-color="#359ECB"/>
<stop offset="1" stop-color="#F8EF28"/>
</linearGradient>
</defs>
</svg>
